<svg id="Layer_1" data-name="Layer 1" xmlns="http://www.w3.org/2000/svg" viewBox="0 0 448.17 481.54"><path d="M286.09,480.1V446c-1.21-2.65-4.89-9.18-8.38-9.71H266l-.22,0-21.12-3.11-.87-.46c-.46-.49-11.17-11.93-11.09-19.58-.43-2.41-6.41-35.4-16.26-45.55l-18.54-.86-.15,0c-.52-.07-12.76-2.13-21.77-25.25-.64-1.64-1.28-3.44-1.89-5.34a76.21,76.21,0,0,0-6.88-14.95c-4.5-7.56-9.77-13.41-15.65-17.39l-.66-1.38c0-.14,1.11-13.51-7-18.42l-8.36-1.08-.54-.17c-.86-.48-5.19-3.05-5.28-6.37a4.51,4.51,0,0,1,2.41-3.91l5-4.8.64-40.15-15.31-32.38c-1.27-1.41-4.5-5.39-3.34-8,.38-.87,1.35-1.91,3.78-1.91.29,0,.61,0,.95,0,2.1.19,5.37.28,9.7.28,6.52,0,13.68-.21,16.13-.29a120.25,120.25,0,0,0,9-25.39c.14-1.58,1.66-13.51,16.82-13.51h11.75s.85.11,1.67.16c-.21-1.32-.56-3.39-.89-5.31l.85-1.61s4.31-2.37,2.06-12.7l-13.29-2.7-.8-.45-10.21-10.89-.41-.94-.23-4,1.66-1.57L180,107.51c.55-.59,1.93-2.36,3.67-6.77l.43-7.1.57-1.09c3.17-2.46,7.85-6.74,8.37-8.56l.87-1c.11-.05,10.72-4.52,21.87-18,8-9.64,11.85-12.39,14.17-14a9.57,9.57,0,0,0,2.18-1.86c1-1.67,11.43-19.47,22.93-19.78,4.51-.59,12.32-2.05,14.36-3.5l.87-.28h62l1.43,1.05c.05.13,1.45,3.87,8.4,4.07,2.41.06,5.15.09,8.16.09,5.12,0,9.28-.09,9.32-.09l.71.16c.46.23,10.84,5.54,15.27,9.62l25.31.21a194.22,194.22,0,0,0,33.36-20A110.73,110.73,0,0,0,445,11.31c5.47-5.47,13-8.25,22.36-8.25a55.58,55.58,0,0,1,8.32.66c1.83.29,3.69.65,5.51,1.08a88.47,88.47,0,0,1,16.13,5.54c.74.34,1.22.58,1.38.66,2.9,1.18,52.77,21.49,58.91,31.72l.16.38c.09.32,2,7.91-9.5,21.75,2.85,3.6,12.28,16.4,14.43,30.44l0,.13,1.33,20.44-1,1.5c-33.35,13.16-89.61,35.23-91.66,35.24l0,0c-2.1.45-19.28,7.3-30.7,11.84l-.8.32c-12.9,5.14-14.12,5.6-14.6,5.64-.92.55-2.75,3.34-1.15,10.47l8.1,18.39,5,6.64,17.76,23.45,19.55,22.55a34.66,34.66,0,0,1,7.91-1.16c3,0,5.05.8,6,2.4s.72,3.68-.67,6.28l-.28.37c-.43.43-4.15,4.33.1,9.28l.36,1c0,.08.3,9.58,14.63,18.51l.71,1.27a11.48,11.48,0,0,1-3.11,7.51c-.95.95-1.22,3.38-.6,5.41.35,1.17.83,1.6,1,1.63a2.94,2.94,0,0,1,.63-.08,2.52,2.52,0,0,1,2.45,2.32c.59,3.13-1.74,9.6-5.51,11.07-1.25.49-1.14,8.25.84,17.26,2.25,2.78,5.14,8.87,1.38,14l-.47.42c-.22.12-5.45,3-19,4.82a64.94,64.94,0,0,1-11.94,4.49c-.6,1.67-2.14,4.95-5,4.95-1.83,0-3.57-1.32-5.33-4-4.28-1.1-29-7.83-35.86-18.34a40.13,40.13,0,0,0-14.2-3.09c-6.71,0-11.38,2.65-13.88,7.88l-.05.1s-2.37,4.56-1.17,17.27c.84,1.7,4.76,10.5,3.38,25.21.38,1.59,1.52,8.69-4.47,19.66-.1,1.85-.79,9.9-5.27,14.82l-.14.13c-.09.08-9.41,7.94-18.26,15.94h0c-10.28,9.31-14,13.43-15.27,15.26l-2,14.1,0,.18c-.08.31-2.14,7.56-13.54,10.4l-.43,0-31.1-1.32c-1.61.94-7.4,3.77-18.85,3.77Z" transform="translate(-117.4 -1.56)" style="fill:#01688d"/><path d="M467.4,4.56a52.74,52.74,0,0,1,8.08.65c1.85.28,3.66.64,5.4,1a86.89,86.89,0,0,1,15.84,5.45c.9.41,1.39.66,1.39.66s52.24,21.12,58.25,31.12c0,0,2,7.33-10,21.34,0,0,12.45,14.68,14.9,30.68L562.58,116s-89,35.14-91.11,35.14h0s0,0-.06,0c-1.22,0-18.87,7-32,12.27-7.74,3.08-13.91,5.53-14.17,5.53h-.07c-.6,0-4.72,2.3-2.39,12.46L431,200l5.14,6.78,17.76,23.45,20.23,23.35a35.59,35.59,0,0,1,8.43-1.36c3.75,0,6.77,1.3,4,6.47,0,0-5.33,5.12,0,11.34,0,0,0,10.23,15.34,19.78a10,10,0,0,1-2.67,6.45c-2.55,2.56-1.23,9.6,1.42,9.6a1.47,1.47,0,0,0,.36,0,.93.93,0,0,1,.27,0c2.47,0,.27,9-3.6,10.49s0,19.34,0,19.34,5.77,6.67,1.55,12.45c0,0-5.11,2.89-18.67,4.66,0,0-7.11,3.56-12.67,4.67,0,0-1.26,4.73-3.85,4.73-1.18,0-2.64-1-4.38-3.84,0,0-29.12-7.11-35.79-18.23a41.87,41.87,0,0,0-15.22-3.39c-5.89,0-12,1.94-15.23,8.73,0,0-2.68,4.67-1.34,18.45,0,0,4.9,8.9,3.33,24.9,0,0,2.23,7.11-4.44,19.12,0,0-.23,9.11-4.89,14.23,0,0-9.32,7.85-18.3,16h0c-7,6.32-13.77,12.8-15.71,15.82l-2,14.44s-1.78,6.68-12.46,9.34L306,476.31s-5.33,3.79-18.45,3.79V445.64s-4.45-10.23-9.78-10.89H266l-21.12-3.12S234,420.08,234.23,413c0,0-6.22-36.47-17.11-46.91L198,365.17s-11.79-1.74-20.59-24.32c-.64-1.64-1.26-3.38-1.87-5.25a76.16,76.16,0,0,0-7-15.25c-3.7-6.23-9-13.07-16.1-17.88,0,0,1.33-14.67-8-20l-8.66-1.12s-8-4.44-2.67-7.77l5.56-5.34.66-41.12-15.56-32.91s-7-7.59-.82-7.59a8.15,8.15,0,0,1,.82,0c2.41.21,6,.28,9.83.28,8.11,0,17.07-.33,17.07-.33A118.85,118.85,0,0,0,160.21,160s.45-12.23,15.33-12.23h11.57s1.58.2,2.63.2c.53,0,.92,0,.92-.2,0-.44-1.11-6.89-1.11-6.89s5.78-2.66,2.67-15.34L178,122.63l-10.22-10.89-.23-4,12.9,1.33s2-1.11,4.67-8l.44-7.33s8-6.22,8.89-9.34c0,0,10.9-4.45,22.45-18.44s14.24-13.12,16.45-16c0,0,10.68-18.9,21.79-19.12,0,0,12-1.55,15.12-3.78h62s1.56,4.89,9.79,5.11c2.74.08,5.6.1,8.2.1,5.2,0,9.35-.1,9.35-.1S371,37.93,375,41.94l26.23.22a193.72,193.72,0,0,0,33.95-20.3,110.55,110.55,0,0,0,10.95-9.49c5.86-5.86,13.6-7.81,21.31-7.81m0-3c-9.78,0-17.67,2.92-23.43,8.69a106.34,106.34,0,0,1-10.65,9.22,192.89,192.89,0,0,1-32.77,19.68L376.14,39c-4.68-4.07-14-8.9-15.16-9.47l-1.44-.32s-4.17.09-9.28.09c-3,0-5.73,0-8.12-.09-5.79-.16-7-3-7-3.12l0,.09L332.27,24h-62l-1.74.56c-1.53,1.09-8.22,2.52-13.61,3.22-12.05.41-22.4,17.56-24.05,20.43A8.64,8.64,0,0,1,229,49.73c-2.38,1.69-6.37,4.51-14.46,14.31C203.72,77.19,193.4,81.58,193.3,81.62l-1.75,2c-.4,1.2-4.06,4.85-7.84,7.78l-1.15,2.19-.42,6.86a24.51,24.51,0,0,1-2.83,5.52l-11.46-1.18-3.3,3.16.22,4,.81,1.88,10.22,10.89,1.59.89,12.32,2.5c1.53,8.17-1.51,10.11-1.54,10.13l.13-.07-1.71,3.24c.2,1.13.4,2.32.58,3.39H175.54c-13.8,0-18,9.52-18.31,14.82a118.73,118.73,0,0,1-8.47,24.1c-3,.1-9.35.27-15.18.27-4.29,0-7.51-.09-9.57-.27-.37,0-.74,0-1.08,0-3.41,0-4.69,1.76-5.15,2.81-1.41,3.2,1.41,7.17,3.45,9.47l15.07,31.87-.63,39.17-4.46,4.28a5.93,5.93,0,0,0-3,5.12c.11,4,4.66,6.87,6.05,7.64l1.07.35,8,1c7,4.55,6,16.71,6,16.84l1.31,2.75c5.7,3.86,10.82,9.55,15.2,16.92a73.85,73.85,0,0,1,6.72,14.59l0,0c.62,1.93,1.27,3.76,1.93,5.43,9.32,23.92,22.39,26.1,22.94,26.19l.3,0,17.93.84c7.89,8.78,13.74,34.42,15.44,44.21,0,8.09,10.31,19.22,11.49,20.48l1.75.91,21.12,3.12.44,0h11.55c2.24.45,5.37,5,7,8.53V480.1l3,3c11,0,17-2.54,19.22-3.75l30.67,1.3.85-.09c12.25-3.05,14.54-11.13,14.63-11.48l.07-.36,1.9-13.73c1.24-1.67,4.78-5.61,14.84-14.71h0c8.82-8,18.12-15.82,18.22-15.9l.28-.27c4.56-5,5.46-12.91,5.63-15.41,5.81-10.78,5-17.95,4.52-20.19,1.28-14.26-2.32-23.16-3.44-25.5-1.07-11.86,1-16.15,1.05-16.19l0,.06.1-.19c2.26-4.73,6.36-7,12.53-7a38.32,38.32,0,0,1,13.21,2.8c7.24,10.41,29.92,16.88,35.91,18.44,1.15,1.68,3.29,4.22,6.27,4.22,3.39,0,5.25-3.06,6.14-5.18a68,68,0,0,0,11.26-4.31c13.62-1.83,19-4.84,19.27-5l.94-.83c4.17-5.7,1.27-12.32-1.2-15.55-1.4-6.57-2-13.57-1.23-15.41,4.26-2.06,6.67-8.91,6-12.55a4,4,0,0,0-3.92-3.54c-.52-1.13-.62-3.71.06-4.4a12.89,12.89,0,0,0,3.55-8.57l-1.41-2.55C490,278.84,489.56,270.33,489.55,270l-.72-1.9c-3.17-3.7-.94-6.48-.18-7.25l.55-.73c1.65-3.1,1.86-5.71.63-7.76s-3.71-3.12-7.3-3.12a34.07,34.07,0,0,0-7.38,1l-18.94-21.87L438.51,205l-4.93-6.5-8-18.09c-1.33-6,0-8.12.43-8.62,1.13-.32,4-1.48,14.44-5.62l.81-.33c10.28-4.09,27.28-10.87,30.24-11.71.93,0,3-.48,47.35-17.77,22.27-8.68,44.57-17.48,44.79-17.57l1.89-3-1.33-20.45,0-.26c-2.05-13.33-10.45-25.53-14-30.19,10.92-13.6,9.27-21.3,9-22.17l-.32-.75c-1-1.74-4.22-7-32.67-20.48-13-6.16-25.54-11.28-26.9-11.83-.22-.11-.69-.34-1.39-.66a89.31,89.31,0,0,0-16.41-5.64c-1.85-.44-3.74-.81-5.62-1.1a57.31,57.31,0,0,0-8.54-.68Z" transform="translate(-117.4 -1.56)" style="fill:#fff"/><g style="opacity:0.13"><path d="M359.85,283.49c16.53,33.89,40.19,82.36,7.92,154.56h0c-7,6.32-13.77,12.8-15.71,15.82l-2,14.44s-1.78,6.68-12.46,9.34L306,476.31s-5.33,3.79-18.45,3.79V447.17c26.41-48.73,22.66-70.26,12.27-111-4.7-18.44-10.56-41.39-13.7-73.35C275.62,176.89,387.94,126.16,393,123.92c-31,30.19-53.05,93.24-45.33,129.73C349.54,262.39,354.32,272.17,359.85,283.49Z" transform="translate(-117.4 -1.56)" style="fill:#003243"/><path d="M475.48,5.21,391.91,95.84S328,112.55,268,181.67c-47.56,54.82-47.41,88.12-46.53,109.41l.53,24.14-6.27,3.1a283.31,283.31,0,0,0-38.32,22.53c-.64-1.64-1.26-3.38-1.87-5.25a76.16,76.16,0,0,0-7-15.25,312.52,312.52,0,0,1,30.55-18.21l2.66-1.3s-.15-5.7-.26-9.21c-.77-26.33-1.84-62.39,50.89-123.28,51.85-59.91,92-75.41,116.05-84.66l10.27-3.61c2.67-2.54,26.2-27,56.45-58.22a110.55,110.55,0,0,0,10.95-9.49C454,4.44,465.39,3.67,475.48,5.21Z" transform="translate(-117.4 -1.56)" style="fill:#003243"/><path d="M496.72,11.71c-27.14,53.7-53.85,110.19-55.32,127.08l-2,24.55c-7.86,3.13-14.1,5.61-14.18,5.53-.23-.23-4.9,1.78-2.45,12.45L431,200l5.14,6.78c-1.75,27.2-4.33,54.51-14.59,78.57l-13.18-25.41c5.93-18.18,6.55-38.2,8.17-70.17.89-17.78,1.82-36.18,4.49-53.95,5.31-35.39,40.32-97.16,59.88-129.55A86.89,86.89,0,0,1,496.72,11.71Z" transform="translate(-117.4 -1.56)" style="fill:#003243"/></g><text transform="translate(125.26 298.68)" style="font-size:16.154237747192383px;fill:#fff;font-family:ApexNew-Bold, ApexNew Bold;font-weight:700"><tspan style="letter-spacing:-0.030981856840443318em">F</tspan><tspan x="7.37" y="0">ole</tspan></text><text transform="translate(221.09 206.34)" style="font-size:16.154237747192383px;fill:#fff;font-family:ApexNew-Bold, ApexNew Bold;font-weight:700"><tspan style="letter-spacing:0.0039898586370131885em">R</tspan><tspan x="8.76" y="0">ødding</tspan></text><text transform="translate(114.82 98.55)" style="font-size:16.154237747192383px;fill:#fff;font-family:ApexNew-Bold, ApexNew Bold;font-weight:700">Li<tspan x="11.4" y="0" style="letter-spacing:-0.0039898586370131885em">n</tspan><tspan x="20.31" y="0">trup</tspan></text><text transform="translate(239.13 68.44)" style="font-size:16.154237747192383px;fill:#fff;font-family:ApexNew-Bold, ApexNew Bold;font-weight:700">S<tspan x="7.96" y="0" style="letter-spacing:0.016987125409101606em">k</tspan><tspan x="15.81" y="0" style="letter-spacing:-0.004957097094470931em">r</tspan><tspan x="21.02" y="0" style="letter-spacing:-0.008040169677617486em">a</tspan><tspan x="28.67" y="0" style="letter-spacing:-0.00997464659253297em">v</tspan><tspan x="36.28" y="0">e</tspan></text><text transform="translate(346.53 90.75)" style="font-size:16.154237747192383px;fill:#fff;font-family:ApexNew-Bold, ApexNew Bold;font-weight:700">Skodbo<tspan x="51.58" y="0" style="letter-spacing:-0.007979717274026377em">r</tspan><tspan x="56.73" y="0">g</tspan></text><text transform="translate(198.57 131.33)" style="font-size:16.154237747192383px;fill:#fff;font-family:ApexNew-Bold, ApexNew Bold;font-weight:700"><tspan style="letter-spacing:0.00800994347582193em">H</tspan><tspan x="10.66" y="0" style="letter-spacing:-0.000030226201795554457em">je</tspan><tspan x="22.68" y="0" style="letter-spacing:0.023969378023874686em">r</tspan><tspan x="28.35" y="0">ting</tspan></text><text transform="translate(179.79 393.56)" style="font-size:16.154237747192383px;fill:#fff;font-family:ApexNew-Bold, ApexNew Bold;font-weight:700">G<tspan x="10.44" y="0" style="letter-spacing:-0.004987323296266485em">r</tspan><tspan x="15.64" y="0">am</tspan></text><text transform="translate(322.45 298.68)" style="font-size:16.154237747192383px;fill:#fff;font-family:ApexNew-Bold, ApexNew Bold;font-weight:700">Øs<tspan x="17.53" y="0" style="letter-spacing:-0.005984787955519782em">t</tspan><tspan x="22.78" y="0">er</tspan><tspan x="-3.38" y="19.38">Lindet</tspan></text><text transform="translate(61.67 215.06)" style="font-size:16.154237747192383px;fill:#fff;font-family:ApexNew-Bold, ApexNew Bold;font-weight:700"><tspan style="letter-spacing:0.005984787955519782em">S</tspan><tspan x="8.06" y="0">ønder </tspan><tspan x="51.81" y="0" style="letter-spacing:0.009007408135075229em">H</tspan><tspan x="62.48" y="0" style="letter-spacing:-0.010004872794328528em">y</tspan><tspan x="69.93" y="0">gum</tspan></text></svg>