<?xml version="1.0" encoding="utf-8"?>
<!-- Generator: Adobe Illustrator 24.1.2, SVG Export Plug-In . SVG Version: 6.00 Build 0)  -->
<svg version="1.1" id="Layer_1" xmlns="http://www.w3.org/2000/svg" xmlns:xlink="http://www.w3.org/1999/xlink" x="0px" y="0px"
	 viewBox="0 0 44.2 44.2" style="enable-background:new 0 0 44.2 44.2;" xml:space="preserve">
<style type="text/css">
	.st0{fill:#FDEFDB;}
</style>
<g>
	<path class="st0" d="M22.1,43.9C9.9,43.7,0.4,34.3,0.4,22.2C0.4,10,9.9,0.5,22.1,0.5c12.2,0,21.7,9.5,21.6,21.7
		C43.7,34.3,34.2,43.7,22.1,43.9z M22.1,2.9c-10.6,0-19.3,8.6-19.3,19.2c0,10.7,8.6,19.3,19.3,19.3c10.6,0,19.3-8.6,19.3-19.2
		C41.4,11.6,32.8,2.9,22.1,2.9z"/>
	<path class="st0" d="M31.2,6.3c-0.1,0.8-0.3,1.4-0.4,2.1c-0.7,3.5-1.3,7-2,10.6c-0.4,2.1-0.8,4.1-1.2,6.2c0,0.1-0.1,0.2-0.2,0.3
		c-3.6,3.1-7.1,6.1-10.7,9.1c-1.2,1-2.5,2.1-3.7,3.1c-0.1,0-0.1,0.1-0.2,0.2c0.1-0.5,0.2-0.9,0.2-1.2c1.1-5.9,2.2-11.7,3.3-17.6
		c0-0.1,0.1-0.2,0.2-0.3c2.8-2.4,5.5-4.7,8.3-7.1C27,10,29,8.2,31,6.5C31.1,6.5,31.1,6.4,31.2,6.3z M15.1,34.2
		C15.1,34.2,15.1,34.2,15.1,34.2c3.8-3.1,7.5-6.3,11.3-9.5c-2.9-1.7-5.7-3.3-8.6-5C16.9,24.5,16,29.3,15.1,34.2z"/>
</g>
</svg>
