<?xml version="1.0" encoding="utf-8"?>
<!-- Generator: Adobe Illustrator 24.1.2, SVG Export Plug-In . SVG Version: 6.00 Build 0)  -->
<svg version="1.1" id="Layer_1" xmlns="http://www.w3.org/2000/svg" xmlns:xlink="http://www.w3.org/1999/xlink" x="0px" y="0px"
	 viewBox="0 0 44.2 44.2" style="enable-background:new 0 0 44.2 44.2;" xml:space="preserve">
<style type="text/css">
	.st0{fill:#FDEFDB;}
</style>
<g id="Layer_2_1_">
	<g id="Location">
		<g id="Location_Pin_2_2x.png">
			<path class="st0" d="M32.3,22.1c0.5,0.3,1.1,0.1,1.4-0.4c0.3-0.5,0.7-1.1,1.1-1.6c0.4-0.4,0.3-1.1-0.1-1.4s-1.1-0.3-1.4,0.1
				c-0.5,0.6-0.9,1.2-1.3,1.8C31.7,21.2,31.8,21.8,32.3,22.1C32.3,22.1,32.3,22.1,32.3,22.1z M13.1,6.1c-3.9,0-7,3.1-7,7s3.1,7,7,7
				s7-3.1,7-7S17,6.1,13.1,6.1z M13.1,18.1c-2.8,0-5-2.2-5-5s2.2-5,5-5s5,2.2,5,5S15.9,18.1,13.1,18.1z M18.3,41.1
				c-0.6-0.2-1.2-0.5-1.7-0.8c-0.4-0.3-1.1-0.2-1.4,0.2c-0.3,0.4-0.2,1.1,0.2,1.4c0.1,0,0.1,0.1,0.2,0.1c0.7,0.4,1.3,0.7,2.1,1
				c0.1,0,0.2,0.1,0.3,0.1c0.6,0,1-0.4,1-1C19,41.6,18.7,41.2,18.3,41.1L18.3,41.1z M14.1,37.1c0-0.6-0.4-1-1-1s-1,0.4-1,1
				c0,0.5,0.1,0.9,0.3,1.3c0.1,0.4,0.5,0.7,0.9,0.7c0.1,0,0.2,0,0.4-0.1c0.5-0.2,0.8-0.8,0.6-1.3c0,0,0,0,0,0
				C14.2,37.5,14.1,37.3,14.1,37.1z M24.1,42.1c-0.7,0-1.4-0.1-2-0.2c-0.5-0.1-1,0.3-1.1,0.9c0,0,0,0,0,0c-0.1,0.5,0.3,1,0.9,1.1
				c0,0,0,0,0,0c0.7,0.1,1.4,0.2,2.1,0.2h0c0.6,0,1-0.4,1-1S24.7,42.1,24.1,42.1z M35.6,40.1c-0.5,0.4-1.1,0.6-1.6,0.9
				c-0.5,0.2-0.8,0.8-0.5,1.3c0.2,0.5,0.8,0.8,1.3,0.5c0.7-0.3,1.4-0.7,2-1.1c0.5-0.3,0.6-0.9,0.3-1.4
				C36.7,39.9,36.1,39.7,35.6,40.1C35.6,40,35.6,40,35.6,40.1L35.6,40.1z M38.1,14.6c-0.6,0.4-1.1,0.8-1.7,1.3
				c-0.4,0.4-0.4,1-0.1,1.4c0.3,0.4,0.9,0.4,1.3,0.1c0.5-0.4,1.1-0.9,1.6-1.2c0.4-0.3,0.5-1,0.2-1.4C39.1,14.4,38.6,14.3,38.1,14.6z
				 M38.3,34.5c-0.5,0.1-0.9,0.6-0.8,1.2c0,0,0,0,0,0c0.1,0.3,0.1,0.6,0.1,0.9c0,0.2,0,0.5-0.1,0.7c-0.1,0.5,0.2,1.1,0.8,1.2h0.2
				c0.5,0,0.9-0.3,1-0.8c0.1-0.4,0.1-0.7,0.1-1.1c0-0.5,0-0.9-0.1-1.3C39.3,34.7,38.8,34.4,38.3,34.5C38.3,34.5,38.2,34.5,38.3,34.5
				L38.3,34.5z M44,12.2c-0.3-0.5-0.9-0.7-1.3-0.4c0,0,0,0,0,0c0,0-0.3,0.2-0.9,0.5c-0.5,0.3-0.6,0.9-0.4,1.4s0.9,0.6,1.4,0.4
				l0.8-0.5C44.1,13.3,44.2,12.7,44,12.2L44,12.2z M13.1,0.1c-7.2,0-13,5.8-13,13c0,0,0,0.1,0,0.1c0,10.6,13,20.9,13,20.9
				s13-10.3,13-20.9C26.2,6,20.4,0.2,13.1,0.1C13.2,0.1,13.2,0.1,13.1,0.1z M13.1,31.5c-1.8-1.6-3.5-3.3-5-5.1
				c-2.7-3.3-6-8.3-6-13.2c0-6.1,4.9-11,11-11s11,4.9,11,11C24.1,20.9,16.2,28.7,13.1,31.5z M30.1,41.9c-0.6,0.1-1.3,0.2-2,0.2
				c-0.6,0-1,0.5-1,1c0,0.6,0.5,1,1,1h0.1c0.7,0,1.5-0.1,2.1-0.2c0.6-0.1,0.9-0.6,0.9-1.1C31.2,42.2,30.7,41.8,30.1,41.9L30.1,41.9z
				 M33.3,26.7c-0.3-0.5-0.4-1-0.5-1.5c-0.1-0.6-0.6-1-1.1-0.9s-1,0.6-0.9,1.1l0,0c0.1,0.8,0.4,1.6,0.8,2.3c0.3,0.5,0.9,0.6,1.4,0.4
				C33.4,27.8,33.6,27.2,33.3,26.7L33.3,26.7L33.3,26.7z M37.4,31.2c-0.4-0.6-0.9-1.1-1.5-1.7c-0.4-0.4-1-0.5-1.4-0.1
				s-0.5,1-0.1,1.4c0,0,0.1,0.1,0.1,0.1c0.5,0.5,0.9,1,1.3,1.5c0.3,0.5,0.9,0.6,1.4,0.3C37.6,32.3,37.7,31.7,37.4,31.2
				C37.4,31.2,37.4,31.2,37.4,31.2L37.4,31.2z"/>
		</g>
	</g>
</g>
</svg>
