<?xml version="1.0" encoding="utf-8"?>
<!-- Generator: Adobe Illustrator 24.1.2, SVG Export Plug-In . SVG Version: 6.00 Build 0)  -->
<svg version="1.1" id="Layer_1" xmlns="http://www.w3.org/2000/svg" xmlns:xlink="http://www.w3.org/1999/xlink" x="0px" y="0px"
	 viewBox="0 0 44.2 44.2" style="enable-background:new 0 0 44.2 44.2;" xml:space="preserve">
<style type="text/css">
	.st0{fill:#FDEFDB;}
</style>
<path class="st0" d="M7.8,36.6c0.1,0,0.2,0,0.2,0l9.8-2.4l9.8,2.4c0.1,0,0.2,0,0.2,0s0.2,0,0.2,0l10-2.4c0.4-0.1,0.8-0.5,0.8-1V9.6
	c0-0.3-0.1-0.6-0.4-0.8c-0.2-0.2-0.6-0.3-0.9-0.2L27.8,11L18,8.6c0,0,0,0,0,0c-0.1,0-0.1,0-0.2,0s-0.1,0-0.2,0c0,0,0,0,0,0l-10,2.4
	c-0.4,0.1-0.8,0.5-0.8,1v23.6c0,0.3,0.1,0.6,0.4,0.8C7.4,36.5,7.6,36.6,7.8,36.6z M36.8,32.4l-8,1.9V12.8l8-1.9V32.4z M26.8,34.3
	l-8-1.9V10.9l8,1.9V34.3z M8.8,12.8l8-1.9v21.5l-8,1.9V12.8z"/>
</svg>
