<svg id="Lag_1" data-name="Lag 1" xmlns="http://www.w3.org/2000/svg" viewBox="0 0 204.19 204.19"><defs><style>.cls-1{fill:#04485d;}.cls-2{fill:#fff;}</style></defs><path class="cls-1" d="M119.48,124l11,8.58c-3.83,41.51-15.31,71.64-28.89,71.64-16.71,0-30.26-45.72-30.26-102.1,0-5.29.12-10.49.35-15.56l9,7Z"/><path class="cls-1" d="M131.81,102.09q0,7.95-.34,15.57l-9-7L83.63,80.21l-11-8.58C76.5,30.13,88,0,101.55,0,118.27,0,131.81,45.71,131.81,102.09Z"/><path class="cls-2" d="M80.64,93.57,119.48,124c-3.81,11-10.41,18.2-17.93,18.2-11.82,0-21.4-17.94-21.4-40.08A73.53,73.53,0,0,1,80.64,93.57Z"/><path class="cls-2" d="M123,102.09a73.74,73.74,0,0,1-.48,8.53L83.63,80.21C87.43,69.26,94,62,101.55,62,113.38,62,123,80,123,102.09Z"/><rect class="cls-1" x="28.15" y="96.28" width="139.33" height="5.58" transform="translate(81.3 -39.17) rotate(37.82)"/><polygon class="cls-1" points="198.74 166.27 185.63 182.27 154.34 156.63 159.93 149.81 154.38 156.55 151.97 147.91 149.57 139.25 158.54 139.92 167.49 140.6 167.45 140.64 198.74 166.27"/><polygon class="cls-1" points="3.86 37.22 16.96 21.21 48.26 46.85 42.66 53.68 48.22 46.93 50.63 55.58 53.02 64.24 44.06 63.56 35.11 62.89 35.15 62.84 3.86 37.22"/></svg>